# xmcd CD database file
# Copyright (C) 1993-1996 Ti Kan
#
# Track frame offsets:
# 150
# 14080
# 26617
# 36695
# 47910
# 59802
# 72337
# 82460
# 91995
# 102880
# 112017
# 120327
# 134832
# 146012
# 159585
# 173332
# 184770
# 193535
# 204812
# 220182
# 236192
# 248882
# 262500
# 270202
# 284315
# 294405
#
# Disc length: 4047 seconds
#
# Revision: 0
# Processed by: cddbd v1.4PL0 Copyright (c) Steve Scherf et al.
# Submitted via: inCDius 1.1b5
#
DISCID=8a0fcd1a
DTITLE=Ernest Tubb - Walking The Floor Over You - Disc 5
DYEAR=1996
DGENRE=Country
TTITLE0=That's Why I'm Crying Over You
TTITLE1=Gone And Left Me Blues
TTITLE2=When The Tumble Weeds Come Tumbling Down Again 
TTITLE3=I'll Be True While Your Gone
TTITLE4=The End Of The World
TTITLE5=It Just Don't Matter Now
TTITLE6=You're On My Mind
TTITLE7=I'm Wasting My Tears On You
TTITLE8=Ten Years
TTITLE9=Old Love Letters (Bring Memories Of You
TTITLE10=Low And Lonely
TTITLE11=Where The Deep Waters Flow
TTITLE12=You May Have Your Picture
TTITLE13=It's Coming Back To You
TTITLE14=Over The River
TTITLE15=You Don't Care
TTITLE16=Let Me Smile My Last Smile At You
TTITLE17=I'm Tired Of You
TTITLE18=You Told Me A Lie
TTITLE19=Frankie And Johnnie
TTITLE20=Jealous Heart
TTITLE21=Crying Myself To Sleep
TTITLE22=Fort Worth Jail
TTITLE23=You're Breaking My Heart
TTITLE24=My Hillbilly Baby
TTITLE25=Farther And Farther Apart
EXTD=
EXTT0=
EXTT1=
EXTT2=
EXTT3=
EXTT4=
EXTT5=
EXTT6=
EXTT7=
EXTT8=
EXTT9=
EXTT10=
EXTT11=
EXTT12=
EXTT13=
EXTT14=
EXTT15=
EXTT16=
EXTT17=
EXTT18=
EXTT19=
EXTT20=
EXTT21=
EXTT22=
EXTT23=
EXTT24=
EXTT25=
PLAYORDER=
